<svg xmlns="http://www.w3.org/2000/svg" viewBox="0 0 607.03 186.9"><path d="M5.14 170.55v16.35H0v-85.1h4.91v14.74h.35c5.49-4.33 12.16-8.42 19.06-8.42 15 0 22.45 11.22 22.45 28.64C46.76 155.82 35.19 167 22 167c-5.26 0-11-2.57-16.83-6.9v10.4zm16.6-8.07c11.34 0 19.52-10.52 19.52-25.72 0-13.8-4.91-24.08-17.77-24.08-5.61 0-11.57 3.27-18.35 9.24v33.32c6.43 5.26 12.28 7.24 16.6 7.24zm56.79-54.36c13.33 0 21.51 9.47 21.51 26a25.39 25.39 0 0 1-.23 4.21H59.36c.23 14.15 8.53 24.32 21.16 24.32a24.86 24.86 0 0 0 15.08-5l2.1 4c-4.44 2.69-9.47 5.49-17.65 5.49-14.38 0-26-11-26-29.34S66 108.12 78.53 108.12zm16.6 26.19c0-14.38-6.43-21.74-16.48-21.74-9.59 0-18.12 8.3-19.29 21.74h35.77zm14.26-32.51h4.91v16.38h.35c5.73-5.73 11.57-10.05 19.29-10.05 11.57 0 17 7 17 21.51v36h-5.14v-35.31c0-11.93-3.74-17.54-12.86-17.54-6.66 0-11.46 3.51-18.35 10.52v42.32h-5.14V101.8zm55.47 12.2h-8.77v-4l8.89-.47.09-24h5.06v24h16.25V114h-16.26v36.59c0 7.13 1.75 11.92 9.47 11.92a18.8 18.8 0 0 0 7-1.75l1.4 4.21a31.33 31.33 0 0 1-9.12 2.1c-10.87 0-14-6.9-14-17V114zm64.59 16.45c.23-8.53-2.22-17.77-13.21-17.77-7.6 0-14.15 3.74-17.89 6.55l-2.35-3.86c4-2.81 11.69-7.25 20.81-7.25 13.33 0 17.77 9.59 17.77 21.63v35.89h-4.89v-7.27h-.23c-5.74 4.63-12.52 8.63-19.89 8.63-8.89 0-16.37-4.79-16.37-15.43.01-12.35 11.35-18.31 36.25-21.12zm-19.06 32.15c6.43 0 12.16-3.16 19.06-9.12v-19.05c-23 2.69-30.86 8.07-30.86 17 0 8.01 5.41 11.17 11.8 11.17zm39.75 7.95v16.35H245v-85.1h4.91v14.74h.35c5.5-4.33 12.16-8.42 19.06-8.42 15 0 22.45 11.22 22.45 28.64 0 19.06-11.57 30.28-24.78 30.28-5.26 0-11-2.57-16.84-6.9v10.4zm16.6-8.07c11.34 0 19.52-10.52 19.52-25.72 0-13.8-4.91-24.08-17.77-24.08-5.61 0-11.57 3.27-18.35 9.24v33.32c6.43 5.26 12.27 7.24 16.6 7.24zm57.39-54.36c13.56 0 25.25 10.76 25.25 29.58 0 18.59-11.69 29.34-25.25 29.34S299 156.29 299 137.7c0-18.82 11.68-29.58 25.13-29.58zm0 54.36c11.34 0 19.87-10.05 19.87-24.78s-8.53-25-19.87-25-19.76 10.17-19.76 25 8.42 24.78 19.76 24.78zm57.39-54.36c6.78 0 11.34 2.57 17 6.9l-.23-10.29V77.6h5.14v88h-4.91v-7.28h-.35c-4.61 4.68-10.81 8.68-18.29 8.68-14.15 0-23.26-10.4-23.26-29.34 0-18.08 11.57-29.54 24.9-29.54zm-.94 54.36c6.2 0 11.69-3.27 17.65-9.24v-33.31c-6-5.26-10.87-7.25-16.37-7.25-11.22 0-19.76 10.87-19.76 25 .01 14.87 6.56 24.8 18.48 24.8z"/><ellipse cx="525.78" cy="26.52" rx="27.28" ry="26.52"/><ellipse cx="548.08" cy="71.92" rx="14.65" ry="13.73"/><circle cx="576.58" cy="117.43" r="30.46"/><path d="M492.35 98.44a37 37 0 0 0-9.42 1.22 22.27 22.27 0 1 0-20 12.41h.77a36.92 36.92 0 1 0 28.65-13.63z"/></svg>