<svg xmlns="http://www.w3.org/2000/svg" viewBox="0 0 607.04 186.9"><defs><style>.a{fill:#333;}</style></defs><path class="a" d="M5.14,170.55V186.9H0V101.8H4.91v14.74H5.26c5.49-4.33,12.16-8.42,19.06-8.42,15,0,22.45,11.22,22.45,28.64C46.76,155.82,35.19,167,22,167c-5.26,0-11-2.57-16.83-6.9v10.4Zm16.6-8.07c11.34,0,19.52-10.52,19.52-25.72,0-13.8-4.91-24.08-17.77-24.08-5.61,0-11.57,3.27-18.35,9.24v33.32c6.43,5.26,12.28,7.24,16.6,7.24h0Z"/><path class="a" d="M78.53,108.12c13.33,0,21.51,9.47,21.51,26a25.39,25.39,0,0,1-.23,4.21H59.36c0.23,14.15,8.53,24.32,21.16,24.32a24.86,24.86,0,0,0,15.08-5l2.1,4c-4.44,2.69-9.47,5.49-17.65,5.49-14.38,0-26-11-26-29.34S66,108.12,78.53,108.12Zm16.6,26.19c0-14.38-6.43-21.74-16.48-21.74-9.59,0-18.12,8.3-19.29,21.74H95.13Z"/><path class="a" d="M109.39,101.8h4.91v16.38h0.35c5.73-5.73,11.57-10.05,19.29-10.05,11.57,0,17,7,17,21.51v36H145.8V130.33c0-11.93-3.74-17.54-12.86-17.54-6.66,0-11.46,3.51-18.35,10.52v42.32h-5.14V101.8h-0.06Z"/><path class="a" d="M164.86,114h-8.77v-4l8.89-.47,0.09-24h5.06v24h16.25V114H170.12v36.59c0,7.13,1.75,11.92,9.47,11.92a18.8,18.8,0,0,0,7-1.75L188,165a31.33,31.33,0,0,1-9.12,2.1c-10.87,0-14-6.9-14-17V114h0Z"/><path class="a" d="M229.45,130.45c0.23-8.53-2.22-17.77-13.21-17.77-7.6,0-14.15,3.74-17.89,6.55L196,115.37c4-2.81,11.69-7.25,20.81-7.25,13.33,0,17.77,9.59,17.77,21.63v35.89h-4.89v-7.27h-0.23C223.72,163,216.94,167,209.57,167c-8.89,0-16.37-4.79-16.37-15.43C193.21,139.22,204.55,133.26,229.45,130.45ZM210.39,162.6c6.43,0,12.16-3.16,19.06-9.12V134.43c-23,2.69-30.86,8.07-30.86,17C198.59,159.44,204,162.6,210.39,162.6Z"/><path class="a" d="M250.14,170.55V186.9H245V101.8h4.91v14.74h0.35c5.5-4.33,12.16-8.42,19.06-8.42,15,0,22.45,11.22,22.45,28.64C291.77,155.82,280.2,167,267,167c-5.26,0-11-2.57-16.84-6.9v10.4h0Zm16.6-8.07c11.34,0,19.52-10.52,19.52-25.72,0-13.8-4.91-24.08-17.77-24.08-5.61,0-11.57,3.27-18.35,9.24v33.32c6.43,5.26,12.27,7.24,16.6,7.24h0Z"/><path class="a" d="M324.13,108.12c13.56,0,25.25,10.76,25.25,29.58,0,18.59-11.69,29.34-25.25,29.34S299,156.29,299,137.7C299,118.88,310.68,108.12,324.13,108.12Zm0,54.36c11.34,0,19.87-10.05,19.87-24.78s-8.53-25-19.87-25-19.76,10.17-19.76,25,8.42,24.78,19.76,24.78h0Z"/><path class="a" d="M381.52,108.12c6.78,0,11.34,2.57,17,6.9l-0.23-10.29V77.6h5.14v88h-4.91v-7.28h-0.35C393.56,163,387.36,167,379.88,167c-14.15,0-23.26-10.4-23.26-29.34C356.62,119.58,368.19,108.12,381.52,108.12Zm-0.94,54.36c6.2,0,11.69-3.27,17.65-9.24V119.93c-6-5.26-10.87-7.25-16.37-7.25-11.22,0-19.76,10.87-19.76,25,0,14.87,6.56,24.8,18.48,24.8h0Z"/><ellipse class="a" cx="525.78" cy="26.52" rx="27.28" ry="26.52"/><ellipse class="a" cx="548.08" cy="71.92" rx="14.65" ry="13.73"/><circle class="a" cx="576.58" cy="117.43" r="30.46"/><path class="a" d="M492.35,98.44a37,37,0,0,0-9.42,1.22,22.27,22.27,0,1,0-20,12.41h0.77A36.92,36.92,0,1,0,492.35,98.44Z"/></svg>