<svg id="レイヤー_1" data-name="レイヤー 1" xmlns="http://www.w3.org/2000/svg" viewBox="0 0 93.24 118.37"><defs><style>.cls-1{fill:#7c293d;}.cls-2{opacity:0.2;}.cls-3{fill:#ed5a6c;}.cls-4{fill:#fff;}</style></defs><title>ribbon</title><path class="cls-1" d="M88.63,0s4.61,0,4.61,14H81.83C81.83,0,88.63,0,88.63,0Z"/><path class="cls-2" d="M88,118.37L43.73,101,1,118.37V14C1,2.66,4.17,0,4.17,0H88.63S88,2.66,88,14V118.37Z"/><path class="cls-3" d="M85.46,115.71L42.73,98.29,0,115.71V11.39C0,0,3.17,0,3.17,0H88.63s-3.17,0-3.17,11.39V115.71Z"/><g class="cls-2"><path d="M33,30v4.36a11,11,0,0,0-7-2.67,8.89,8.89,0,0,0-6.56,2.7,9.21,9.21,0,0,0-2.7,6.58,8.85,8.85,0,0,0,2.54,6.48,8.51,8.51,0,0,0,6.33,2.64,7.73,7.73,0,0,0,3.29-.63,13,13,0,0,0,2-.85A18.52,18.52,0,0,1,33,47.27v4.44a14.63,14.63,0,0,1-7.08,1.79,12.75,12.75,0,0,1-9.15-3.65A12.21,12.21,0,0,1,13,41a12.48,12.48,0,0,1,3-8.32,13.1,13.1,0,0,1,10.23-4.47A13.81,13.81,0,0,1,33,30Z"/><path d="M41.13,53.9l-2.7-2,5.83-8L43.45,44l-0.54,0a6.86,6.86,0,0,1-5.12-2.26,7.54,7.54,0,0,1-2.15-5.41,8.18,8.18,0,0,1,8.14-8.16,8.1,8.1,0,0,1,5.8,2.37,7.45,7.45,0,0,1,2.47,5.57,10.69,10.69,0,0,1-2.4,6.15Zm-1.9-17.77a4.51,4.51,0,0,0,1.34,3.32,4.62,4.62,0,1,0,3.26-7.87A4.62,4.62,0,0,0,39.23,36.12Z"/><path d="M55.22,40.69q0-5.83,2.72-9.31a7.1,7.1,0,0,1,11.8,0q2.72,3.48,2.72,9.47t-2.72,9.46a7.24,7.24,0,0,1-5.88,3.15,7.32,7.32,0,0,1-5.91-3.15Q55.22,46.83,55.22,40.69Zm3.62,0a14.47,14.47,0,0,0,1.41,6.75q1.41,2.64,3.59,2.64t3.59-2.64a13.8,13.8,0,0,0,1.42-6.63,13.89,13.89,0,0,0-1.42-6.64Q66,31.57,63.83,31.57t-3.57,2.62A13.48,13.48,0,0,0,58.84,40.71Z"/></g><g class="cls-2"><path d="M20.38,61a1.09,1.09,0,0,1,2.16,0v3.24H27a0.94,0.94,0,0,1,0,1.86H25.83a37.4,37.4,0,0,1-1.41,4.11h2.94a1,1,0,0,1,0,1.92H22.48v2.64H27.1a0.93,0.93,0,0,1,0,1.86H22.48V78a23.9,23.9,0,0,1,3.84,2.64,1.31,1.31,0,0,1,.63,1.08,1.13,1.13,0,0,1-1.08,1.14A1.16,1.16,0,0,1,25,82.43c-0.75-.75-1.53-1.47-2.52-2.34v6.54a1,1,0,0,1-1,.9,0.93,0.93,0,0,1-1-.9V78.89a22.44,22.44,0,0,1-4.44,6,1.23,1.23,0,0,1-.84.42A1.2,1.2,0,0,1,14,84.14c0-.45.09-0.6,0.81-1.26a28.84,28.84,0,0,0,5-6.21H15.52a0.93,0.93,0,0,1,0-1.86h4.92V72.17H14.92a0.89,0.89,0,0,1-.87-1,0.88,0.88,0,0,1,.87-1h3.3a42.54,42.54,0,0,0-1.11-4.11H15.52a0.94,0.94,0,0,1,0-1.86h4.86V61Zm2.07,9.21c0.51-1.41.93-2.73,1.29-4.11h-4.5a33.24,33.24,0,0,1,1,4.11h2.22Zm8.64,1.86c-0.09,6.42-.45,9.39-1.5,11.94a16.76,16.76,0,0,1-1.5,2.7,1.2,1.2,0,0,1-1,.57,1.3,1.3,0,0,1-1.26-1.17,1.44,1.44,0,0,1,.33-0.84c2.25-3,2.88-6.27,2.76-14.4V65.36c0-1.38.54-1.92,2-2.13,0.48-.09,1.71-0.33,3.15-0.63l0.27-.06,0.27-.06c0.42-.06,2.28-0.57,3.15-0.84a1.84,1.84,0,0,1,.51-0.09,1.11,1.11,0,0,1,1.08,1.14,1.08,1.08,0,0,1-.93,1.11,45.56,45.56,0,0,1-6.66,1.41c-0.6.09-.72,0.18-0.72,0.72v4.14h9.75a0.93,0.93,0,0,1,.9,1,1,1,0,0,1-.9,1H37.5V86.57a1.09,1.09,0,0,1-2.16,0V72.11H31.08Z"/><path d="M46.39,64.82a1.06,1.06,0,0,1,0-2.1H57.85a1.05,1.05,0,0,1,0,2.1H53.26v7.41h5.61a1.05,1.05,0,0,1,0,2.1H53.26V86.51a1.09,1.09,0,0,1-1.17,1,1.05,1.05,0,0,1-1.17-1V74.33H45.25a1.06,1.06,0,0,1,0-2.1h5.67V64.82H46.39Zm17.1,14.94a1.15,1.15,0,0,1-2.28,0V65.6a1.15,1.15,0,0,1,2.28,0V79.76Zm6.33,4.5c0,1.89-.87,2.61-3.15,2.61a29.36,29.36,0,0,1-4-.27,1.24,1.24,0,0,1-.87-1.29,1,1,0,0,1,1-1l0.42,0a29,29,0,0,0,3.27.21c0.84,0,1-.21,1-1.11V62.93a1.14,1.14,0,0,1,2.28,0V84.26Z"/></g><path class="cls-4" d="M32,29.36v4.36a11,11,0,0,0-7-2.67,8.88,8.88,0,0,0-6.55,2.7,9.21,9.21,0,0,0-2.7,6.58,8.85,8.85,0,0,0,2.54,6.48,8.51,8.51,0,0,0,6.33,2.64,7.73,7.73,0,0,0,3.29-.63,13,13,0,0,0,2-.85A18.34,18.34,0,0,1,32,46.68v4.44a14.6,14.6,0,0,1-7.07,1.79,12.74,12.74,0,0,1-9.15-3.65A12.21,12.21,0,0,1,12,40.37,12.48,12.48,0,0,1,15,32a13.09,13.09,0,0,1,10.22-4.47A13.79,13.79,0,0,1,32,29.36Z"/><path class="cls-4" d="M40.14,53.3l-2.7-2,5.83-8-0.81.09-0.54,0A6.86,6.86,0,0,1,36.8,41.2a7.54,7.54,0,0,1-2.15-5.41,8.18,8.18,0,0,1,8.14-8.16A8.1,8.1,0,0,1,48.6,30a7.45,7.45,0,0,1,2.47,5.57,10.69,10.69,0,0,1-2.4,6.15Zm-1.9-17.77a4.51,4.51,0,0,0,1.34,3.32A4.62,4.62,0,1,0,42.84,31,4.62,4.62,0,0,0,38.24,35.53Z"/><path class="cls-4" d="M54.23,40.1q0-5.83,2.72-9.31a7.1,7.1,0,0,1,11.8,0q2.72,3.48,2.72,9.47t-2.72,9.46a7.24,7.24,0,0,1-5.88,3.15,7.32,7.32,0,0,1-5.91-3.15Q54.23,46.23,54.23,40.1Zm3.62,0a14.47,14.47,0,0,0,1.41,6.75q1.41,2.64,3.59,2.64t3.59-2.64a13.8,13.8,0,0,0,1.42-6.63,13.89,13.89,0,0,0-1.42-6.64Q65,31,62.85,31T59.27,33.6A13.48,13.48,0,0,0,57.85,40.11Z"/><path class="cls-4" d="M19.39,60.45a1,1,0,0,1,1.08-.93,1,1,0,0,1,1.08.93v3.24H26a0.94,0.94,0,0,1,0,1.86H24.85a37.4,37.4,0,0,1-1.41,4.11h2.94a1,1,0,0,1,0,1.92H21.49v2.64h4.62a0.93,0.93,0,0,1,0,1.86H21.49v1.35a23.9,23.9,0,0,1,3.84,2.64A1.31,1.31,0,0,1,26,81.15a1.13,1.13,0,0,1-1.08,1.14A1.16,1.16,0,0,1,24,81.84c-0.75-.75-1.53-1.47-2.52-2.34V86a1,1,0,0,1-1,.9,0.93,0.93,0,0,1-1-.9V78.3a22.44,22.44,0,0,1-4.44,6,1.23,1.23,0,0,1-.84.42,1.2,1.2,0,0,1-1.11-1.14c0-.45.09-0.6,0.81-1.26a28.84,28.84,0,0,0,5-6.21H14.53a0.93,0.93,0,0,1,0-1.86h4.92V71.58H13.93a0.89,0.89,0,0,1-.87-1,0.88,0.88,0,0,1,.87-1h3.3a42.54,42.54,0,0,0-1.11-4.11H14.53a0.94,0.94,0,0,1,0-1.86h4.86V60.45Zm2.07,9.21c0.51-1.41.93-2.73,1.29-4.11h-4.5a33.24,33.24,0,0,1,1,4.11h2.22Zm8.64,1.86c-0.09,6.42-.45,9.39-1.5,11.94a16.76,16.76,0,0,1-1.5,2.7,1.2,1.2,0,0,1-1,.57,1.3,1.3,0,0,1-1.26-1.17,1.44,1.44,0,0,1,.33-0.84c2.25-3,2.88-6.27,2.76-14.4V64.77c0-1.38.54-1.92,2-2.13,0.48-.09,1.71-0.33,3.15-0.63l0.27-.06,0.27-.06c0.42-.06,2.28-0.57,3.15-0.84A1.84,1.84,0,0,1,37.33,61a1.11,1.11,0,0,1,1.08,1.14,1.08,1.08,0,0,1-.93,1.11,45.56,45.56,0,0,1-6.66,1.41c-0.6.09-.72,0.18-0.72,0.72v4.14h9.75a0.93,0.93,0,0,1,.9,1,1,1,0,0,1-.9,1H36.52V86a1.09,1.09,0,0,1-2.16,0V71.52H30.1Z"/><path class="cls-4" d="M45.4,64.23a1.06,1.06,0,0,1,0-2.1H56.86a1.05,1.05,0,0,1,0,2.1H52.27v7.41h5.61a1.05,1.05,0,0,1,0,2.1H52.27V85.92a1.09,1.09,0,0,1-1.17,1,1.05,1.05,0,0,1-1.17-1V73.74H44.26a1.06,1.06,0,0,1,0-2.1h5.67V64.23H45.4ZM62.5,79.17a1.15,1.15,0,0,1-2.28,0V65a1.15,1.15,0,0,1,2.28,0V79.17Zm6.33,4.5c0,1.89-.87,2.61-3.15,2.61a29.36,29.36,0,0,1-4-.27,1.24,1.24,0,0,1-.87-1.29,1,1,0,0,1,1-1l0.42,0A29,29,0,0,0,65.5,84c0.84,0,1-.21,1-1.11V62.34a1.14,1.14,0,0,1,2.28,0V83.67Z"/></svg>