<svg xmlns="http://www.w3.org/2000/svg" viewBox="0 0 120 120"><path d="M49.69,19.15v4a9.47,9.47,0,0,0-6.12-2.48,7.8,7.8,0,0,0-5.87,2.5,8.45,8.45,0,0,0-2.4,6.09,8.24,8.24,0,0,0,2.4,6,7.93,7.93,0,0,0,5.89,2.45,7.22,7.22,0,0,0,3.06-.59,8.83,8.83,0,0,0,1.46-.79,17.36,17.36,0,0,0,1.59-1.2v4.12A12.33,12.33,0,0,1,43.54,41a11.35,11.35,0,0,1-8.28-3.38,11.22,11.22,0,0,1-3.41-8.23,11.61,11.61,0,0,1,2.86-7.71,11.37,11.37,0,0,1,9.1-4.15A11.55,11.55,0,0,1,49.69,19.15Z"/><path d="M58,41.33l-2.5-1.86,5.41-7.37-0.75.09-0.5,0a6.36,6.36,0,0,1-4.75-2.09,7,7,0,0,1-2-5,7.58,7.58,0,0,1,7.54-7.56,7.5,7.5,0,0,1,5.38,2.2,6.9,6.9,0,0,1,2.29,5.16,9.9,9.9,0,0,1-2.23,5.7ZM56.27,24.87a4.18,4.18,0,0,0,1.25,3.08,4.28,4.28,0,1,0,6-6,4.28,4.28,0,0,0-6,0A4.07,4.07,0,0,0,56.27,24.87Z"/><path d="M71.08,29.1a13.63,13.63,0,0,1,2.52-8.63,6.58,6.58,0,0,1,10.93,0Q87,23.7,87,29.25T84.52,38a6.7,6.7,0,0,1-5.45,2.92A6.78,6.78,0,0,1,73.6,38Q71.08,34.78,71.08,29.1Zm3.35,0a13.4,13.4,0,0,0,1.3,6.25q1.3,2.45,3.33,2.45t3.33-2.45a12.78,12.78,0,0,0,1.32-6.14,12.87,12.87,0,0,0-1.32-6.15q-1.32-2.43-3.33-2.43t-3.31,2.43A12.49,12.49,0,0,0,74.43,29.12Z"/><path d="M27,54.58a1.53,1.53,0,0,1,1.69-1.46,1.53,1.53,0,0,1,1.69,1.46v5.07h7a1.46,1.46,0,0,1,0,2.91H35.52A58.45,58.45,0,0,1,33.31,69h4.6a1.52,1.52,0,0,1,0,3H30.25v4.13h7.23a1.46,1.46,0,0,1,0,2.91H30.25v2.11a37.59,37.59,0,0,1,6,4.13,2.05,2.05,0,0,1,1,1.69,1.77,1.77,0,0,1-1.69,1.79,1.82,1.82,0,0,1-1.36-.71c-1.17-1.17-2.4-2.3-3.95-3.66V94.65a1.49,1.49,0,0,1-1.6,1.41,1.46,1.46,0,0,1-1.6-1.41V82.53a35.17,35.17,0,0,1-7,9.35,1.94,1.94,0,0,1-1.32.66,1.88,1.88,0,0,1-1.74-1.79c0-.7.14-0.94,1.27-2a45.19,45.19,0,0,0,7.8-9.73H19.36a1.46,1.46,0,0,1,0-2.91h7.7V72H18.42a1.4,1.4,0,0,1-1.36-1.5A1.37,1.37,0,0,1,18.42,69h5.17a66.67,66.67,0,0,0-1.74-6.44H19.36a1.46,1.46,0,0,1,0-2.91H27V54.58ZM30.21,69c0.8-2.21,1.46-4.27,2-6.44h-7A52.09,52.09,0,0,1,26.73,69h3.48Zm13.53,2.91C43.6,82,43,86.62,41.39,90.61A26.35,26.35,0,0,1,39,94.84a1.87,1.87,0,0,1-1.55.89,2,2,0,0,1-2-1.83A2.24,2.24,0,0,1,36,92.59c3.52-4.65,4.51-9.82,4.32-22.55V61.34c0-2.16.85-3,3.19-3.34,0.75-.14,2.68-0.52,4.93-1l0.42-.09,0.42-.09c0.66-.09,3.57-0.89,4.93-1.32a2.87,2.87,0,0,1,.8-0.14,1.74,1.74,0,0,1,1.69,1.79,1.68,1.68,0,0,1-1.46,1.74,71.24,71.24,0,0,1-10.43,2.21c-0.94.14-1.13,0.28-1.13,1.13v6.48H59a1.46,1.46,0,0,1,1.41,1.6A1.49,1.49,0,0,1,59,71.91H53.79V94.56a1.7,1.7,0,0,1-3.38,0V71.91H43.74Z"/><path d="M65.34,60.5a1.66,1.66,0,0,1,0-3.29H83.29a1.65,1.65,0,0,1,0,3.29H76.1V72.1h8.78a1.65,1.65,0,0,1,0,3.29H76.1V94.46a1.71,1.71,0,0,1-1.83,1.6,1.65,1.65,0,0,1-1.83-1.6V75.39H63.56a1.66,1.66,0,0,1,0-3.29h8.88V60.5H65.34Zm26.78,23.4a1.8,1.8,0,0,1-3.57,0V61.72a1.8,1.8,0,0,1,3.57,0V83.89Zm9.91,7c0,3-1.36,4.09-4.93,4.09a46,46,0,0,1-6.2-.42,1.94,1.94,0,0,1-1.36-2A1.5,1.5,0,0,1,91,91a5.34,5.34,0,0,1,.66,0,45.28,45.28,0,0,0,5.12.33c1.32,0,1.64-.33,1.64-1.74V57.54a1.79,1.79,0,0,1,3.57,0v33.4Z"/><path d="M60,0a60,60,0,1,0,60,60A60,60,0,0,0,60,0Zm0,6.69C83.77,6.69,103.93,23,110.63,44H9.37C16.07,23,36.23,6.69,60,6.69ZM60,113A53.24,53.24,0,0,1,7.9,50H112.1A53.24,53.24,0,0,1,60,113Z"/></svg>