<svg xmlns="http://www.w3.org/2000/svg" viewBox="0 0 670.07 157.63"><defs><style>.a{fill:#fff;}</style></defs><title>title</title><path class="a" d="M4.6,44.86c-1.65,0-2.41-1.29-3-2.68C0.7,40,0,31.93,0,26.43A77.42,77.42,0,0,1,2.77,6.31,2.62,2.62,0,0,1,5.52,4,2.42,2.42,0,0,1,8.07,6.4a5.09,5.09,0,0,1-.46,1.88C6.11,12.82,5,20.95,5,28.05c0,5.54.47,9.24,0.85,10.15C6.22,37.88,7,36.83,7.6,36s1.15-1.39,2-1.39a2.18,2.18,0,0,1,2.07,2.23c0,1-.94,2.64-3.13,5.39C7,44.08,6.16,44.86,4.6,44.86Zm18.74-.38c-5.41,0-9.19-2.94-9.19-7.14,0-4,3.88-6.71,9.54-6.71a19.61,19.61,0,0,1,3.52.31V30.59L27,27.42c-0.16-4.6-.2-5.32-0.2-6.77,0-.42,0-1.27,0-2.28-1.82.09-3,.13-4.46,0.13-6.61,0-8.17.09-8.17-2.52,0-1.45,1-2.2,2.44-2.2H17.4c1.61,0,3.18,0,5.33,0a33.82,33.82,0,0,0,3.48-.27V5.64c0-1.48,1.35-2.34,3-2.34s3,0.87,3,2.34V13a40.6,40.6,0,0,0,5-.89A2.21,2.21,0,0,1,38,12a2.36,2.36,0,0,1,2.34,2.5A2.46,2.46,0,0,1,38,17.1c-1.06.2-3,.45-5.81,0.82l-0.36,0c0,1.74,0,3.14,0,4,0,3.76.11,7.13,0.35,10.28a43.66,43.66,0,0,1,9.3,4.58A2.74,2.74,0,0,1,43,39.23a2.64,2.64,0,0,1-2.39,2.66,3.68,3.68,0,0,1-2.35-1.07,41,41,0,0,0-6-3.41C31.88,42,28.75,44.48,23.34,44.48Zm-0.2-9.34c-1.29,0-4.26.23-4.26,2.31,0,1.41,1.9,2.47,4.51,2.47s3.81-1.07,3.81-3.28v-1A14.7,14.7,0,0,0,23.15,35.14Z"/><path class="a" d="M102.95,45c-6.84,0-11.08-4.14-11.08-10.81,0-.25,0-0.54.05-1.13S92,31.91,92,30.95c0.52-7.57.81-13.75,0.81-17.42,0-1.87,0-3.65-.09-5.54l0-.72a6.18,6.18,0,0,1-.05-0.93c0-2.51,1.53-3,2.82-3A2.55,2.55,0,0,1,98,5.18c0.09,0.65.13,2.71,0.13,5.87,0,6.28-.31,13.79-0.87,21.15a9.67,9.67,0,0,0-.05,1.2c0,4.1,2,6.36,5.76,6.36a10.47,10.47,0,0,0,8.16-3.89,18.77,18.77,0,0,0,3.3-5.66,2.52,2.52,0,0,1,2.47-2,2.81,2.81,0,0,1,2.82,2.71c0,2-2.73,6.51-5,8.93A15.2,15.2,0,0,1,102.95,45Zm12.42-28.51a2,2,0,0,1-1.88-1.31,22.62,22.62,0,0,0-2.21-3,2,2,0,0,1-.73-1.47,2.12,2.12,0,0,1,2-2c0.87,0,1.56.67,2.71,2.07,1.48,1.77,2.16,3,2.16,3.83A2,2,0,0,1,115.37,16.46Zm5-3.19a2,2,0,0,1-1.72-1.1,37.24,37.24,0,0,0-2.54-3.28,2,2,0,0,1-.72-1.52,2,2,0,0,1,2-1.9c0.85,0,1.51.6,2.92,2.28s2.06,2.69,2.06,3.51A2.09,2.09,0,0,1,120.39,13.27Z"/><path class="a" d="M197.08,44.11a2.45,2.45,0,0,1-2.39-2.5c0-1.57.94-2.17,2.36-2.59,6.61-1.9,10.87-6.7,10.87-12.21,0-6-3.19-9.55-9.47-10.52a65.91,65.91,0,0,1-7.63,15.77c0.22,0.34.46,0.7,1,1.53a3.78,3.78,0,0,1,.85,2.29,2.52,2.52,0,0,1-2.55,2.34c-1.07,0-1.57-.5-2.63-2.12L187.46,36c-2.76,2.79-5.6,4.31-8,4.31-4.21,0-7-3.78-7-9.41,0-4.54,2.19-8.91,6.51-13a72.49,72.49,0,0,1-2.57-9.09,2.39,2.39,0,0,1,2.5-2.39A2.35,2.35,0,0,1,181,8a19.57,19.57,0,0,1,1,3.23l0.7,2.65c0.1,0.31.22,0.67,0.35,1.1a27,27,0,0,1,11.8-3.4c0.61-2.29,1-3.93,1.41-5.68,0.31-1.55,1.1-2.28,2.48-2.28A2.46,2.46,0,0,1,201.41,6c0,0.4-.27,1.57-1.54,5.87,4.53,0.88,7.17,2.26,9.62,5A15,15,0,0,1,213.18,27a15.12,15.12,0,0,1-6,12.38C203.9,42,199.37,44.11,197.08,44.11ZM180.71,23c-2.37,2.66-3.44,5-3.44,7.56,0,2.81,1.08,4.85,2.58,4.85,1.24,0,3.13-1.35,5.07-3.61C183.64,29.37,181.85,25.69,180.71,23Zm3.79-3.43A60.58,60.58,0,0,0,188,27.42a54.68,54.68,0,0,0,5.3-11.2A20.31,20.31,0,0,0,184.5,19.55Z"/><path class="a" d="M279.81,45.56c-7.18,0-11.3-2.68-11.3-7.36,0-3.54,3.09-6.12,7.36-6.12,4.87,0,8.55,2.88,8.55,6.71a4.86,4.86,0,0,1-.3,1.74c4.59-1.52,7.4-4.82,7.4-8.81,0-4.73-3.38-7.44-9.27-7.44-6.81,0-12.71,2.88-17.55,8.57A2.72,2.72,0,0,1,262.42,34a2.55,2.55,0,0,1-2.55-2.55c0-1,.28-1.41,1.86-3.1,5.65-6.05,11.65-12.13,18.3-18.55A110.45,110.45,0,0,1,268.42,11,2.2,2.2,0,0,1,266,8.51C266,6.3,267.66,6,268.89,6c1.53,0,2.21-.05,6-0.33l0.69,0c2.18-.19,4.89-0.45,9.3-1.13a4.86,4.86,0,0,1,.83-0.06h0a2.89,2.89,0,0,1,3,2.77c0,1.16-.23,1.41-2.06,3-2.95,2.59-6.16,5.64-11.68,11.1a22,22,0,0,1,8-1.44c8.54,0,14.05,4.67,14.05,11.89a12.22,12.22,0,0,1-5.56,10.56A20.46,20.46,0,0,1,279.81,45.56Zm-4.05-9.23c-1.57,0-2.58.72-2.58,1.82,0,2.29,3.23,2.87,5.15,3l0.33,0.06h0.13a2.55,2.55,0,0,0,.84-1.88C279.64,37.54,278.08,36.33,275.76,36.33Z"/><path class="a" d="M42,156.19L28.56,130H20.64v26.16H0v-78H29.52c16.8,0,31.2,5.76,31.2,25.2,0,11.16-5,18.48-12.6,22.56L65,156.19H42ZM20.64,113.71h7.44c8.16,0,12.48-3.6,12.48-10.32s-4.32-8.88-12.48-8.88H20.64v19.2Z"/><path class="a" d="M96,94.75c17.76,0,26.16,13,26.16,29a37.36,37.36,0,0,1-.84,8.16H87.12C89,139.63,94.32,142,101,142c4.08,0,7.92-1.2,12.24-3.6L120,150.67a40.42,40.42,0,0,1-21.84,7c-17.52,0-31-11.52-31-31.44C67.2,106.75,81.36,94.75,96,94.75Zm8.64,24.72c0-5-1.92-9.12-8.16-9.12-4.56,0-8.4,2.52-9.6,9.12h17.76Z"/><path class="a" d="M160.56,117.31c-0.48-4.32-3.12-6.24-8.4-6.24-4.32,0-8.88,1.68-15.12,5l-7.2-13.44c8.4-5,17-7.92,26.4-7.92,15.6,0,25,8.4,25,28.08v33.36H164.4L163,150.43h-0.48c-4.8,4.32-10.08,7.2-16.56,7.2-11.28,0-18-8.64-18-18.48C127.92,126.67,137.52,119.71,160.56,117.31Zm-7.44,24.48c3.36,0,5.28-1.68,7.44-4.08v-8.16c-9.84,1.44-13,4.56-13,7.92C147.6,140.23,149.52,141.79,153.12,141.79Z"/><path class="a" d="M221.52,94.75A24.67,24.67,0,0,1,239,101.47l-9.36,12.72c-2.64-2.16-4.8-2.88-7-2.88-7.68,0-12.24,5.76-12.24,14.88s5,14.88,11.52,14.88c3.84,0,7-1.92,9.6-3.84l8.16,13a31.41,31.41,0,0,1-20.16,7.44c-17,0-30.24-11.52-30.24-31.44S204.48,94.75,221.52,94.75Z"/><path class="a" d="M249.35,112.27h-7.92V96.91l9.12-.72,2.4-15.6h17v15.6h13.68v16.08H270v20.52c0,6.6,3.36,8.76,7.2,8.76a17.24,17.24,0,0,0,5.28-1l3.12,14.88a45.32,45.32,0,0,1-14.16,2.16c-15.6,0-22.08-9.84-22.08-24.48V112.27Z"/><path class="a" d="M339.59,78.19h21.12L378,113l7.44,17.52h0.48c-1-8.4-2.64-20.16-2.64-29.76V78.19H403v78H381.83l-17.28-34.92-7.44-17.4h-0.48c1,8.88,2.64,20.16,2.64,29.76v22.56H339.59v-78Z"/><path class="a" d="M446.87,117.31c-0.48-4.32-3.12-6.24-8.4-6.24-4.32,0-8.88,1.68-15.12,5l-7.2-13.44c8.4-5,17-7.92,26.4-7.92,15.6,0,25,8.4,25,28.08v33.36h-16.8l-1.44-5.76h-0.48c-4.8,4.32-10.08,7.2-16.56,7.2-11.28,0-18-8.64-18-18.48C414.23,126.67,423.83,119.71,446.87,117.31Zm-7.44,24.48c3.36,0,5.28-1.68,7.44-4.08v-8.16c-9.84,1.44-13,4.56-13,7.92C433.91,140.23,435.83,141.79,439.43,141.79Z"/><path class="a" d="M481.43,112.27h-7.92V96.91l9.12-.72,2.4-15.6h17v15.6h13.68v16.08H502.07v20.52c0,6.6,3.36,8.76,7.2,8.76a17.23,17.23,0,0,0,5.28-1l3.12,14.88a45.32,45.32,0,0,1-14.16,2.16c-15.6,0-22.08-9.84-22.08-24.48V112.27Z"/><path class="a" d="M523.19,78.43c0-6,4.8-10.32,11.52-10.32s11.52,4.32,11.52,10.32-4.8,10.32-11.52,10.32S523.19,84.43,523.19,78.43Zm1.2,17.76H545v60H524.39v-60Z"/><path class="a" d="M551,96.19h20.64l6.48,26.16q2.16,9,4.32,18.72h0.48q2.16-9.72,4.32-18.72l6.48-26.16h19.68l-19,60H570.71Z"/><path class="a" d="M643.91,94.75c17.76,0,26.16,13,26.16,29a37.43,37.43,0,0,1-.84,8.16H635C637,139.63,642.23,142,649,142c4.08,0,7.92-1.2,12.24-3.6l6.72,12.24a40.42,40.42,0,0,1-21.84,7c-17.52,0-31-11.52-31-31.44C615.11,106.75,629.27,94.75,643.91,94.75Zm8.64,24.72c0-5-1.92-9.12-8.16-9.12-4.56,0-8.4,2.52-9.6,9.12h17.76Z"/><path class="a" d="M360.56,50a1.63,1.63,0,0,1-.47-0.07,3.14,3.14,0,0,1-1.42-1.19L353.27,42l-5.2-6.4c-0.14-.17-3.4-4.19-3.62-5.73a21.14,21.14,0,0,1-.11-3.3c0-.31,0-0.62,0-0.92l0.13-22c0.24-2.35,2.7-3.72,4.93-3.72a5,5,0,0,1,.86.07c2.18,0.38,3.55,2.25,4.77,3.9,0.27,0.37.54,0.73,0.8,1.06l1.54,1.9c1,1.26,2,2.52,3,3.8L360.61,11l3.19-3.91c0.47-.57.93-1.17,1.39-1.78a33.88,33.88,0,0,1,3.22-3.82A5.37,5.37,0,0,1,372.12,0c2.15,0,4.5,1.28,4.6,4.08,0,1.16,0,2.35,0,3.49,0,0.58,0,1.16,0,1.73l0,17.54c0,0.28,0,.56,0,0.86,0,1.51.08,3.22-.83,4.5-0.62.87-1.32,1.7-2,2.51-0.34.4-.67,0.8-1,1.2L362.59,48.57a2.86,2.86,0,0,1-2,1.38h0ZM349,3.49a1.41,1.41,0,0,0-1.54,1.19,8.14,8.14,0,0,0,0,1.36c0,0.24,0,.49,0,0.72l-0.1,20.08c0,1.71,1.32,3.26,2.49,4.62,0.25,0.29.5,0.58,0.73,0.86l9.32,11.5L360,30q0-5.42,0-10.84c0-2.9-.14-3.39-1.54-5.26-0.92-1.24-1.92-2.48-2.88-3.67L354.1,8.42,351.25,4.8a3.21,3.21,0,0,0-1.09-1A2.53,2.53,0,0,0,349,3.49Z"/></svg>